testWalking_kinetics.mot
nRows=10
nColumns=19

name testWalking_kinetics.mot
datacolumns 19
datarows 10
range 0.3787037134 0.3870370388
endheader
time	ground_force_vx	ground_force_vy	ground_force_vz	ground_force_px	ground_force_py	ground_force_pz	ground_force_vx	ground_force_vy	ground_force_vz	ground_force_px	ground_force_py	ground_force_pz	ground_torque_x	ground_torque_y	ground_torque_z	ground_torque_x	ground_torque_y	ground_torque_z
        0.3787037134	        0.0000000000	       -0.0000000000	       -0.0000000000	        0.0762562081	        0.0000000000	       -0.1868414730	      108.7167358398	      835.8236083984	       31.5193099976	        0.4009861052	        0.0000000000	       -0.0665491223	        0.0000000000	       -0.0000000000	       -0.0000000000	        0.0000000000	       -1.6718969345	       -0.0000000000	
        0.3796296418	        0.0000000000	       -0.0000000000	       -0.0000000000	        0.0762562081	        0.0000000000	       -0.1868414730	      109.7655181885	      836.0007324219	       31.7419033051	        0.4011063874	        0.0000000000	       -0.0664495006	        0.0000000000	       -0.0000000000	       -0.0000000000	        0.0000000000	       -1.6262754202	       -0.0000000000	
        0.3805555701	        0.0000000000	       -0.0000000000	       -0.0000000000	        0.0762562081	        0.0000000000	       -0.1868414730	      110.8589324951	      836.6206054688	       31.4747905731	        0.4013653696	        0.0000000000	       -0.0664885491	        0.0000000000	       -0.0000000000	       -0.0000000000	        0.0000000000	       -1.5596728325	       -0.0000000000	
        0.3814814687	        0.0000000000	       -0.0000000000	       -0.0000000000	        0.0762562081	        0.0000000000	       -0.1868414730	      111.7738342285	      836.7977294922	       31.8754596710	        0.4014793336	        0.0000000000	       -0.0663261265	        0.0000000000	       -0.0000000000	       -0.0000000000	        0.0000000000	       -1.5548924208	       -0.0000000000	
        0.3824073970	        0.0000000000	       -0.0000000000	       -0.0000000000	        0.0762562081	        0.0000000000	       -0.1868414730	      112.7556762695	      836.7091674805	       32.1648330688	        0.4016843140	        0.0000000000	       -0.0664670095	        0.0000000000	       -0.0000000000	       -0.0000000000	        0.0000000000	       -1.4468787909	       -0.0000000000	
        0.3833333254	        0.0221849997	        0.1750863940	        0.0000000000	        1.2524259090	        0.0000000000	        0.4089981019	      113.7821502686	      836.5320434570	       32.3206481934	        0.4019207358	        0.0000000000	       -0.0664287582	        0.0000000000	        0.0370846167	       -0.0000000000	        0.0000000000	       -1.3980416059	       -0.0000000000	
        0.3842592537	       -0.1996649951	        0.0875431970	       -0.1783615947	        1.3094025850	        0.0000000000	        0.4816399217	      114.5408477783	      836.7977294922	       32.1870918274	        0.4019980729	        0.0000000000	       -0.0664213374	        0.0000000000	        0.0389011614	       -0.0000000000	        0.0000000000	       -1.3747547865	        0.0000000000	
        0.3851851821	       -0.2662200034	        0.7003455758	        0.2229519933	        1.1410599947	        0.0000000000	        0.2141037583	      115.4780578613	      837.5062255859	       32.6545372009	        0.4022522569	        0.0000000000	       -0.0660977066	        0.0000000000	        0.1287165582	       -0.0000000000	        0.0000000000	       -1.3102506399	       -0.0000000000	
        0.3861111104	       -0.0665550008	        1.4882344007	        0.6019703746	        1.0047096014	        0.0000000000	        0.0922686756	      116.8392486572	      835.9121704102	       32.7880935669	        0.4023974538	        0.0000000000	       -0.0664462224	        0.0000000000	        0.0943214297	       -0.0000000000	        0.0000000000	       -1.2105960846	       -0.0000000000	
        0.3870370388	        0.3771449924	       17.9463558197	        2.9652614594	        0.9107866883	        0.0000000000	        0.0610407777	      118.0888671875	      835.6464843750	       32.8326148987	        0.4025213420	        0.0000000000	       -0.0665015876	        0.0000000000	        0.0397466831	       -0.0000000000	        0.0000000000	       -1.1820130348	        0.0000000000	
